<?xml version="1.0" encoding="utf-8"?>
<!-- Generator: Adobe Illustrator 28.1.0, SVG Export Plug-In . SVG Version: 6.00 Build 0)  -->
<svg version="1.1" id="Layer_1" xmlns="http://www.w3.org/2000/svg" xmlns:xlink="http://www.w3.org/1999/xlink" x="0px" y="0px"
	 viewBox="0 0 51.6 51.6" style="enable-background:new 0 0 51.6 51.6;" xml:space="preserve">
<style type="text/css">
	.st0{fill:#881632;}
	.st1{fill:none;stroke:#B6B6B7;stroke-width:1.3301;stroke-miterlimit:10;}
	.st2{fill:#AE9741;}
</style>
<path class="st0" d="M25.8,45.8L25.8,45.8c10.4,0,18.8-8.4,18.8-18.8v0c0-10.4-8.4-18.8-18.8-18.8h0C15.4,8.2,7,16.6,7,27v0
	C7,37.4,15.4,45.8,25.8,45.8z"/>
<path class="st1" d="M25.8,49.4L25.8,49.4c12.3,0,22.2-9.9,22.2-22.2v0C48,14.9,38.1,5,25.8,5h0C13.5,5,3.6,14.9,3.6,27.2v0
	C3.6,39.5,13.5,49.4,25.8,49.4z"/>
<g>
	<g>
		<g>
			<g>
				<path class="st2" d="M40.4,14.8c-8-2.6-11.3,5.2-15.8,12.9c-3.6-4.4-9.7-1.8-13.4-5.8c2.8,5.3,9,2.6,13.4,5.8
					c-2.8,4.9-6.1,9.7-11.4,11.9C22.8,38.9,29.2,14.9,40.4,14.8z"/>
				<path class="st2" d="M26.1,16.1c0,0-0.8-0.6-1.8,0l-2.4,4.1h2.7L26.1,16.1z"/>
			</g>
		</g>
	</g>
</g>
</svg>
