<?xml version="1.0" encoding="utf-8"?>
<!-- Generator: Adobe Illustrator 28.1.0, SVG Export Plug-In . SVG Version: 6.00 Build 0)  -->
<svg version="1.1" id="Layer_1" xmlns="http://www.w3.org/2000/svg" xmlns:xlink="http://www.w3.org/1999/xlink" x="0px" y="0px"
	 viewBox="0 0 157.8 53.2" style="enable-background:new 0 0 157.8 53.2;" xml:space="preserve">
<style type="text/css">
	.st0{fill:#B8955C;}
	.st1{fill:url(#SVGID_1_);}
	.st2{fill:url(#SVGID_00000084517151151917585280000004952440523712494488_);}
	.st3{fill:#871633;}
	.st4{fill:none;stroke:#B6B6B6;stroke-width:1.3301;stroke-miterlimit:10;}
	.st5{fill:#AC9640;}
</style>
<g>
	<g>
		<g>
			<path class="st0" d="M85.2,14.8c-4.9,0-8.9,4-8.9,8.9v6.8c0,4.9,4,8.9,8.9,8.9s8.9-4,8.9-8.9v-6.8C94.1,18.8,90.1,14.8,85.2,14.8
				z M92.3,30.6c0,3.9-3.2,7.1-7.1,7.1s-7.1-3.2-7.1-7.1v-6.8c0-3.9,3.2-7.1,7.1-7.1s7.1,3.2,7.1,7.1V30.6z"/>
			<path class="st0" d="M106.8,14.8c-4.9,0-8.9,4-8.9,8.9v15c0,0.5,0.4,0.9,0.9,0.9s0.9-0.4,0.9-0.9v-15c0-3.9,3.2-7.1,7.1-7.1
				c3.9,0,7.1,3.2,7.1,7.1v14.8c0,0.5,0.4,0.9,0.9,0.9s0.9-0.4,0.9-0.9V23.7C115.7,18.8,111.7,14.8,106.8,14.8z"/>
			<path class="st0" d="M147.5,14.8c-4.9,0-8.9,4-8.9,8.9v6.8c0,4.9,4,8.9,8.9,8.9c2.9,0,5.4-1.4,7.1-3.5v2.6c0,0.5,0.4,0.9,0.9,0.9
				c0.5,0,0.9-0.4,0.9-0.9v-8v-6.8C156.4,18.8,152.4,14.8,147.5,14.8z M147.5,37.6c-3.9,0-7.1-3.2-7.1-7.1v-6.8
				c0-3.9,3.2-7.1,7.1-7.1s7.1,3.2,7.1,7.1v6.8C154.6,34.4,151.4,37.6,147.5,37.6z"/>
			<path class="st0" d="M63.1,24L73,16c0.4-0.3,0.5-0.9,0.1-1.3c-0.3-0.4-0.9-0.5-1.3-0.1L59.2,24.8V7.4c0-0.5-0.4-0.9-0.9-0.9
				s-0.9,0.4-0.9,0.9V39c0,0.5,0.4,0.9,0.9,0.9s0.9-0.4,0.9-0.9V27.2l2.4-2l12.1,14.2c0.2,0.2,0.4,0.3,0.7,0.3
				c0.2,0,0.4-0.1,0.6-0.2c0.4-0.3,0.4-0.9,0.1-1.3L63.1,24z"/>
		</g>
		<g>
			<path class="st0" d="M58.8,48.5C58.7,48.5,58.7,48.5,58.8,48.5c-0.1-0.1-0.1-0.1-0.1-0.1v-3.6h-1.2c0,0-0.1,0-0.1,0
				c0,0,0-0.1,0-0.1v-0.1c0,0,0-0.1,0-0.1c0,0,0.1,0,0.1,0h2.7c0,0,0.1,0,0.1,0c0,0,0,0.1,0,0.1v0.1c0,0,0,0.1,0,0.1
				c0,0-0.1,0-0.1,0H59v3.6c0,0,0,0.1,0,0.1s-0.1,0-0.1,0H58.8z"/>
			<path class="st0" d="M64.5,48.6c-0.3,0-0.5-0.1-0.7-0.2c-0.2-0.1-0.3-0.3-0.4-0.5c-0.1-0.2-0.1-0.4-0.1-0.7v-1.7c0,0,0-0.1,0-0.1
				c0,0,0.1,0,0.1,0h0.1c0,0,0.1,0,0.1,0c0,0,0,0.1,0,0.1v1.6c0,0.7,0.3,1,0.9,1c0.3,0,0.5-0.1,0.7-0.3c0.2-0.2,0.3-0.4,0.3-0.7
				v-1.6c0,0,0-0.1,0-0.1c0,0,0.1,0,0.1,0h0.1c0,0,0.1,0,0.1,0c0,0,0,0.1,0,0.1v2.8c0,0,0,0.1,0,0.1s-0.1,0-0.1,0h-0.1
				c0,0-0.1,0-0.1,0s0-0.1,0-0.1v-0.3c-0.1,0.1-0.2,0.2-0.4,0.3C64.9,48.6,64.7,48.6,64.5,48.6z"/>
			<path class="st0" d="M69.8,48.5C69.8,48.5,69.8,48.5,69.8,48.5c-0.1-0.1-0.1-0.1-0.1-0.1v-2.8c0,0,0-0.1,0-0.1c0,0,0.1,0,0.1,0
				h0.1c0,0,0.1,0,0.1,0c0,0,0,0.1,0,0.1v0.3c0.1-0.1,0.2-0.2,0.3-0.3c0.1-0.1,0.3-0.1,0.5-0.1h0.2c0,0,0.1,0,0.1,0c0,0,0,0.1,0,0.1
				v0.1c0,0,0,0.1,0,0.1c0,0-0.1,0-0.1,0h-0.3c-0.2,0-0.4,0.1-0.6,0.2c-0.1,0.1-0.2,0.3-0.2,0.6v1.8c0,0,0,0.1,0,0.1
				C70,48.5,70,48.5,69.8,48.5L69.8,48.5z"/>
			<path class="st0" d="M74.8,48.5C74.8,48.5,74.8,48.5,74.8,48.5c-0.1-0.1-0.1-0.1-0.1-0.1v-3.9c0,0,0-0.1,0-0.1c0,0,0.1,0,0.1,0
				h0.1c0,0,0.1,0,0.1,0c0,0,0,0.1,0,0.1v2.1l1.3-1c0.1,0,0.1-0.1,0.1-0.1c0,0,0.1,0,0.1,0h0.1c0,0,0.1,0,0.1,0c0,0,0,0.1,0,0.1
				c0,0,0,0,0,0.1c0,0,0,0-0.1,0.1l-1.5,1.1l1.6,1.5c0.1,0,0.1,0.1,0.1,0.1c0,0,0,0.1,0,0.1c0,0,0,0-0.1,0h-0.1c-0.1,0-0.1,0-0.1,0
				c0,0-0.1,0-0.1-0.1l-1.5-1.3v1.3c0,0,0,0.1,0,0.1C75,48.5,75,48.5,74.8,48.5L74.8,48.5z"/>
			<path class="st0" d="M80.6,44.9C80.5,44.9,80.5,44.8,80.6,44.9c-0.1-0.1-0.1-0.1-0.1-0.1v-0.2c0,0,0-0.1,0-0.1c0,0,0.1,0,0.1,0
				h0.2c0,0,0.1,0,0.1,0c0,0,0,0.1,0,0.1v0.2c0,0,0,0.1,0,0.1c0,0-0.1,0-0.1,0H80.6z M80.6,48.5C80.6,48.5,80.5,48.5,80.6,48.5
				c-0.1-0.1-0.1-0.1-0.1-0.1v-2.8c0,0,0-0.1,0-0.1c0,0,0.1,0,0.1,0h0.1c0,0,0.1,0,0.1,0c0,0,0,0.1,0,0.1v2.8c0,0,0,0.1,0,0.1
				S80.8,48.5,80.6,48.5L80.6,48.5z"/>
			<path class="st0" d="M85.7,48.6c-0.2,0-0.4,0-0.5-0.1c-0.1-0.1-0.3-0.1-0.4-0.2c-0.1-0.1-0.2-0.2-0.2-0.2c0-0.1-0.1-0.1-0.1-0.2
				c0,0,0-0.1,0-0.1c0,0,0.1,0,0.1,0h0.1c0,0,0,0,0.1,0c0,0,0,0,0.1,0.1c0.1,0.1,0.1,0.1,0.2,0.2c0.1,0.1,0.2,0.1,0.3,0.1
				c0.1,0,0.2,0.1,0.4,0.1c0.2,0,0.4,0,0.6-0.1c0.2-0.1,0.2-0.2,0.2-0.4c0-0.1,0-0.2-0.1-0.3c-0.1-0.1-0.2-0.1-0.3-0.2
				c-0.1-0.1-0.3-0.1-0.6-0.2c-0.2-0.1-0.4-0.1-0.6-0.2c-0.1-0.1-0.2-0.2-0.3-0.3c0-0.1-0.1-0.2-0.1-0.3c0-0.1,0-0.3,0.1-0.4
				c0.1-0.1,0.2-0.2,0.3-0.3c0.2-0.1,0.3-0.1,0.6-0.1c0.2,0,0.4,0,0.5,0.1c0.1,0.1,0.2,0.1,0.3,0.2c0.1,0.1,0.1,0.1,0.2,0.2
				c0,0.1,0.1,0.1,0.1,0.2c0,0,0,0.1,0,0.1c0,0-0.1,0-0.1,0h-0.1c0,0-0.1,0-0.1,0c0,0,0,0-0.1-0.1c0-0.1-0.1-0.1-0.1-0.2
				c-0.1-0.1-0.1-0.1-0.2-0.1c-0.1,0-0.2,0-0.4,0c-0.2,0-0.4,0-0.5,0.1C85,46,85,46.1,85,46.3c0,0.1,0,0.2,0.1,0.2
				c0,0.1,0.1,0.1,0.3,0.2c0.1,0.1,0.3,0.1,0.6,0.2c0.3,0.1,0.4,0.1,0.6,0.2c0.1,0.1,0.2,0.2,0.3,0.3c0.1,0.1,0.1,0.2,0.1,0.4
				c0,0.2,0,0.3-0.1,0.4c-0.1,0.1-0.2,0.2-0.4,0.3C86.2,48.6,86,48.6,85.7,48.6z"/>
			<path class="st0" d="M90.7,48.5C90.7,48.5,90.6,48.5,90.7,48.5c-0.1-0.1-0.1-0.1-0.1-0.1v-3.9c0,0,0-0.1,0-0.1c0,0,0.1,0,0.1,0
				h0.1c0,0,0.1,0,0.1,0c0,0,0,0.1,0,0.1v1.4c0.1-0.1,0.2-0.2,0.4-0.3c0.2-0.1,0.4-0.1,0.6-0.1c0.3,0,0.5,0.1,0.7,0.2
				c0.2,0.1,0.3,0.3,0.4,0.5c0.1,0.2,0.1,0.4,0.1,0.7v1.7c0,0,0,0.1,0,0.1c0,0-0.1,0-0.1,0h-0.1c0,0-0.1,0-0.1,0s0-0.1,0-0.1v-1.6
				c0-0.3-0.1-0.6-0.2-0.7c-0.2-0.2-0.4-0.3-0.7-0.3c-0.3,0-0.5,0.1-0.7,0.3c-0.2,0.2-0.3,0.4-0.3,0.7v1.6c0,0,0,0.1,0,0.1
				C90.9,48.5,90.8,48.5,90.7,48.5L90.7,48.5z"/>
			<path class="st0" d="M101.6,48.5C101.6,48.5,101.5,48.5,101.6,48.5c-0.1-0.1-0.1-0.1-0.1-0.1v-3.8c0,0,0-0.1,0-0.1
				c0,0,0.1,0,0.1,0h1.4c0.4,0,0.7,0.1,1,0.3c0.2,0.2,0.4,0.5,0.4,0.9c0,0.3-0.1,0.6-0.2,0.8c-0.2,0.2-0.4,0.3-0.7,0.4l0.9,1.6
				c0,0,0,0,0,0.1c0,0,0,0.1,0,0.1s-0.1,0-0.1,0h-0.1c-0.1,0-0.1,0-0.1,0c0,0-0.1-0.1-0.1-0.1l-0.9-1.6h-1.2v1.6c0,0,0,0.1,0,0.1
				c0,0-0.1,0-0.1,0H101.6z M101.9,46.5h1.1c0.3,0,0.6-0.1,0.8-0.2c0.2-0.1,0.2-0.3,0.2-0.6c0-0.3-0.1-0.5-0.2-0.6
				c-0.2-0.1-0.4-0.2-0.8-0.2h-1.1V46.5z"/>
			<path class="st0" d="M109.2,48.6c-0.4,0-0.7-0.1-0.9-0.4c-0.2-0.2-0.4-0.6-0.4-1c0-0.1,0-0.1,0-0.2c0-0.1,0-0.2,0-0.2
				c0-0.3,0.1-0.5,0.2-0.7c0.1-0.2,0.3-0.4,0.4-0.5c0.2-0.1,0.4-0.2,0.7-0.2c0.3,0,0.5,0.1,0.7,0.2c0.2,0.1,0.3,0.3,0.4,0.5
				c0.1,0.2,0.2,0.5,0.2,0.8V47c0,0,0,0.1,0,0.1c0,0-0.1,0-0.1,0h-2.1c0,0,0,0.1,0,0.1c0,0.2,0,0.3,0.1,0.5c0.1,0.2,0.2,0.3,0.3,0.4
				c0.1,0.1,0.3,0.1,0.5,0.1c0.2,0,0.3,0,0.4-0.1c0.1-0.1,0.2-0.1,0.3-0.2c0.1-0.1,0.1-0.1,0.1-0.1c0-0.1,0.1-0.1,0.1-0.1
				c0,0,0.1,0,0.1,0h0.1c0,0,0.1,0,0.1,0s0,0,0,0.1c0,0.1,0,0.1-0.1,0.2c-0.1,0.1-0.1,0.2-0.2,0.2c-0.1,0.1-0.2,0.1-0.4,0.2
				C109.6,48.6,109.4,48.6,109.2,48.6z M108.3,46.8h1.9v0c0-0.2,0-0.4-0.1-0.5c-0.1-0.2-0.2-0.3-0.3-0.4c-0.1-0.1-0.3-0.1-0.5-0.1
				c-0.2,0-0.4,0-0.5,0.1c-0.1,0.1-0.2,0.2-0.3,0.4S108.3,46.6,108.3,46.8L108.3,46.8z"/>
			<path class="st0" d="M115.2,48.6c-0.2,0-0.4,0-0.5-0.1c-0.1-0.1-0.3-0.1-0.4-0.2c-0.1-0.1-0.2-0.2-0.2-0.2c0-0.1-0.1-0.1-0.1-0.2
				c0,0,0-0.1,0-0.1c0,0,0.1,0,0.1,0h0.1c0,0,0,0,0.1,0c0,0,0,0,0.1,0.1c0.1,0.1,0.1,0.1,0.2,0.2c0.1,0.1,0.2,0.1,0.3,0.1
				c0.1,0,0.2,0.1,0.4,0.1c0.2,0,0.4,0,0.6-0.1c0.2-0.1,0.2-0.2,0.2-0.4c0-0.1,0-0.2-0.1-0.3c-0.1-0.1-0.2-0.1-0.3-0.2
				c-0.1-0.1-0.3-0.1-0.6-0.2c-0.2-0.1-0.4-0.1-0.6-0.2c-0.1-0.1-0.2-0.2-0.3-0.3c0-0.1-0.1-0.2-0.1-0.3c0-0.1,0-0.3,0.1-0.4
				c0.1-0.1,0.2-0.2,0.3-0.3c0.2-0.1,0.3-0.1,0.6-0.1c0.2,0,0.4,0,0.5,0.1c0.1,0.1,0.2,0.1,0.3,0.2c0.1,0.1,0.1,0.1,0.2,0.2
				c0,0.1,0.1,0.1,0.1,0.2c0,0,0,0.1,0,0.1c0,0-0.1,0-0.1,0H116c0,0-0.1,0-0.1,0c0,0,0,0-0.1-0.1c0-0.1-0.1-0.1-0.1-0.2
				c-0.1-0.1-0.1-0.1-0.2-0.1c-0.1,0-0.2,0-0.4,0c-0.2,0-0.4,0-0.5,0.1c-0.1,0.1-0.2,0.2-0.2,0.4c0,0.1,0,0.2,0.1,0.2
				c0,0.1,0.1,0.1,0.3,0.2c0.1,0.1,0.3,0.1,0.6,0.2c0.3,0.1,0.4,0.1,0.6,0.2c0.1,0.1,0.2,0.2,0.3,0.3s0.1,0.2,0.1,0.4
				c0,0.2,0,0.3-0.1,0.4c-0.1,0.1-0.2,0.2-0.4,0.3C115.7,48.6,115.4,48.6,115.2,48.6z"/>
			<path class="st0" d="M121.1,48.5c-0.2,0-0.4,0-0.5-0.1c-0.1-0.1-0.2-0.2-0.2-0.4c0-0.1-0.1-0.3-0.1-0.5v-1.7h-0.5
				c0,0-0.1,0-0.1,0c0,0,0-0.1,0-0.1v-0.1c0,0,0-0.1,0-0.1c0,0,0.1,0,0.1,0h0.5v-1c0,0,0-0.1,0-0.1c0,0,0.1,0,0.1,0h0.1
				c0,0,0.1,0,0.1,0c0,0,0,0.1,0,0.1v1h0.7c0,0,0.1,0,0.1,0c0,0,0,0.1,0,0.1v0.1c0,0,0,0.1,0,0.1c0,0-0.1,0-0.1,0h-0.7v1.7
				c0,0.2,0,0.4,0.1,0.5c0.1,0.1,0.2,0.2,0.4,0.2h0.3c0,0,0.1,0,0.1,0c0,0,0,0.1,0,0.1v0.1c0,0,0,0.1,0,0.1c0,0-0.1,0-0.1,0H121.1z"
				/>
			<path class="st0" d="M125.9,48.6c-0.2,0-0.4,0-0.5-0.1c-0.2-0.1-0.3-0.2-0.4-0.3c-0.1-0.1-0.1-0.3-0.1-0.4c0-0.3,0.1-0.5,0.3-0.6
				c0.2-0.2,0.5-0.3,0.8-0.3l0.9-0.1v-0.2c0-0.2-0.1-0.4-0.2-0.5c-0.1-0.1-0.3-0.2-0.6-0.2c-0.2,0-0.4,0-0.5,0.1s-0.2,0.2-0.3,0.3
				c0,0.1-0.1,0.1-0.1,0.1h-0.1c0,0-0.1,0-0.1,0c0,0,0-0.1,0-0.1c0-0.1,0-0.1,0.1-0.2c0-0.1,0.1-0.2,0.2-0.2
				c0.1-0.1,0.2-0.1,0.3-0.2c0.1-0.1,0.3-0.1,0.5-0.1c0.2,0,0.4,0,0.6,0.1c0.2,0.1,0.3,0.1,0.4,0.2c0.1,0.1,0.1,0.2,0.2,0.3
				c0,0.1,0.1,0.2,0.1,0.4v2c0,0,0,0.1,0,0.1c0,0-0.1,0-0.1,0h-0.1c0,0-0.1,0-0.1,0c0,0,0-0.1,0-0.1v-0.3c0,0.1-0.1,0.1-0.2,0.2
				s-0.2,0.1-0.3,0.2C126.3,48.6,126.1,48.6,125.9,48.6z M126,48.3c0.2,0,0.3,0,0.5-0.1c0.1-0.1,0.3-0.2,0.4-0.4
				c0.1-0.2,0.1-0.4,0.1-0.6V47l-0.8,0.1c-0.3,0-0.6,0.1-0.7,0.2c-0.2,0.1-0.2,0.2-0.2,0.4c0,0.1,0,0.2,0.1,0.3
				c0.1,0.1,0.2,0.1,0.3,0.2C125.7,48.2,125.8,48.3,126,48.3z"/>
			<path class="st0" d="M132.3,48.6c-0.3,0-0.5-0.1-0.7-0.2c-0.2-0.1-0.3-0.3-0.4-0.5c-0.1-0.2-0.1-0.4-0.1-0.7v-1.7
				c0,0,0-0.1,0-0.1c0,0,0.1,0,0.1,0h0.1c0,0,0.1,0,0.1,0c0,0,0,0.1,0,0.1v1.6c0,0.7,0.3,1,0.9,1c0.3,0,0.5-0.1,0.7-0.3
				c0.2-0.2,0.3-0.4,0.3-0.7v-1.6c0,0,0-0.1,0-0.1c0,0,0.1,0,0.1,0h0.1c0,0,0.1,0,0.1,0c0,0,0,0.1,0,0.1v2.8c0,0,0,0.1,0,0.1
				s-0.1,0-0.1,0h-0.1c0,0-0.1,0-0.1,0s0-0.1,0-0.1v-0.3c-0.1,0.1-0.2,0.2-0.4,0.3C132.8,48.6,132.6,48.6,132.3,48.6z"/>
			<path class="st0" d="M137.7,48.5C137.6,48.5,137.6,48.5,137.7,48.5c-0.1-0.1-0.1-0.1-0.1-0.1v-2.8c0,0,0-0.1,0-0.1
				c0,0,0.1,0,0.1,0h0.1c0,0,0.1,0,0.1,0c0,0,0,0.1,0,0.1v0.3c0.1-0.1,0.2-0.2,0.3-0.3c0.1-0.1,0.3-0.1,0.5-0.1h0.2c0,0,0.1,0,0.1,0
				c0,0,0,0.1,0,0.1v0.1c0,0,0,0.1,0,0.1c0,0-0.1,0-0.1,0h-0.3c-0.2,0-0.4,0.1-0.6,0.2c-0.1,0.1-0.2,0.3-0.2,0.6v1.8
				c0,0,0,0.1,0,0.1C137.8,48.5,137.8,48.5,137.7,48.5L137.7,48.5z"/>
			<path class="st0" d="M143.3,48.6c-0.2,0-0.4,0-0.5-0.1c-0.2-0.1-0.3-0.2-0.4-0.3c-0.1-0.1-0.1-0.3-0.1-0.4c0-0.3,0.1-0.5,0.3-0.6
				c0.2-0.2,0.5-0.3,0.8-0.3l0.9-0.1v-0.2c0-0.2-0.1-0.4-0.2-0.5c-0.1-0.1-0.3-0.2-0.6-0.2c-0.2,0-0.4,0-0.5,0.1
				c-0.1,0.1-0.2,0.2-0.3,0.3c0,0.1-0.1,0.1-0.1,0.1h-0.1c0,0-0.1,0-0.1,0c0,0,0-0.1,0-0.1c0-0.1,0-0.1,0.1-0.2
				c0-0.1,0.1-0.2,0.2-0.2s0.2-0.1,0.3-0.2c0.1-0.1,0.3-0.1,0.5-0.1c0.2,0,0.4,0,0.6,0.1c0.2,0.1,0.3,0.1,0.4,0.2
				c0.1,0.1,0.1,0.2,0.2,0.3c0,0.1,0.1,0.2,0.1,0.4v2c0,0,0,0.1,0,0.1c0,0-0.1,0-0.1,0h-0.1c0,0-0.1,0-0.1,0c0,0,0-0.1,0-0.1v-0.3
				c0,0.1-0.1,0.1-0.2,0.2s-0.2,0.1-0.3,0.2C143.7,48.6,143.5,48.6,143.3,48.6z M143.4,48.3c0.2,0,0.3,0,0.5-0.1
				c0.1-0.1,0.3-0.2,0.4-0.4c0.1-0.2,0.1-0.4,0.1-0.6V47l-0.8,0.1c-0.3,0-0.6,0.1-0.7,0.2c-0.2,0.1-0.2,0.2-0.2,0.4
				c0,0.1,0,0.2,0.1,0.3c0.1,0.1,0.2,0.1,0.3,0.2C143.1,48.2,143.2,48.3,143.4,48.3z"/>
			<path class="st0" d="M148.7,48.5C148.6,48.5,148.6,48.5,148.7,48.5c-0.1-0.1-0.1-0.1-0.1-0.1v-2.8c0,0,0-0.1,0-0.1
				c0,0,0.1,0,0.1,0h0.1c0,0,0.1,0,0.1,0c0,0,0,0.1,0,0.1v0.3c0.1-0.1,0.2-0.2,0.4-0.3c0.2-0.1,0.4-0.1,0.6-0.1
				c0.3,0,0.5,0.1,0.7,0.2c0.2,0.1,0.3,0.3,0.4,0.5c0.1,0.2,0.1,0.4,0.1,0.7v1.7c0,0,0,0.1,0,0.1c0,0-0.1,0-0.1,0h-0.1
				c0,0-0.1,0-0.1,0c0,0,0-0.1,0-0.1v-1.6c0-0.3-0.1-0.6-0.2-0.7c-0.2-0.2-0.4-0.3-0.7-0.3c-0.3,0-0.5,0.1-0.7,0.3
				c-0.2,0.2-0.3,0.4-0.3,0.7v1.6c0,0,0,0.1,0,0.1C148.9,48.5,148.8,48.5,148.7,48.5L148.7,48.5z"/>
			<path class="st0" d="M155.9,48.5c-0.2,0-0.4,0-0.5-0.1c-0.1-0.1-0.2-0.2-0.2-0.4c0-0.1-0.1-0.3-0.1-0.5v-1.7h-0.5
				c0,0-0.1,0-0.1,0c0,0,0-0.1,0-0.1v-0.1c0,0,0-0.1,0-0.1c0,0,0.1,0,0.1,0h0.5v-1c0,0,0-0.1,0-0.1c0,0,0.1,0,0.1,0h0.1
				c0,0,0.1,0,0.1,0c0,0,0,0.1,0,0.1v1h0.7c0,0,0.1,0,0.1,0c0,0,0,0.1,0,0.1v0.1c0,0,0,0.1,0,0.1c0,0-0.1,0-0.1,0h-0.7v1.7
				c0,0.2,0,0.4,0.1,0.5c0.1,0.1,0.2,0.2,0.4,0.2h0.3c0,0,0.1,0,0.1,0c0,0,0,0.1,0,0.1v0.1c0,0,0,0.1,0,0.1c0,0-0.1,0-0.1,0H155.9z"
				/>
		</g>
	</g>
	<g>
		<radialGradient id="SVGID_1_" cx="134.2382" cy="23.7252" r="24.3125" gradientUnits="userSpaceOnUse">
			<stop  offset="0" style="stop-color:#B8955C"/>
			<stop  offset="0.2621" style="stop-color:#B79259"/>
			<stop  offset="0.4809" style="stop-color:#B38752"/>
			<stop  offset="0.6842" style="stop-color:#AD7644"/>
			<stop  offset="0.8768" style="stop-color:#A45E32"/>
			<stop  offset="1" style="stop-color:#9D4A23"/>
		</radialGradient>
		<path class="st1" d="M155.5,4.8c-11.2-3.7-15.7,7.2-22,18c-5-6.2-13.6-2.6-18.7-8c3.9,7.4,12.6,3.6,18.7,8.1
			c-3.9,6.8-8.6,13.6-16,16.6C131,38.4,139.9,4.9,155.5,4.8z"/>
		
			<radialGradient id="SVGID_00000044900645186880671970000016065637901817744306_" cx="134.2382" cy="23.7252" r="24.3125" gradientUnits="userSpaceOnUse">
			<stop  offset="0" style="stop-color:#B8955C"/>
			<stop  offset="0.2621" style="stop-color:#B79259"/>
			<stop  offset="0.4809" style="stop-color:#B38752"/>
			<stop  offset="0.6842" style="stop-color:#AD7644"/>
			<stop  offset="0.8768" style="stop-color:#A45E32"/>
			<stop  offset="1" style="stop-color:#9D4A23"/>
		</radialGradient>
		<path style="fill:url(#SVGID_00000044900645186880671970000016065637901817744306_);" d="M135.5,6.5c0,0-1.1-0.8-2.5,0l-3.3,5.7
			h3.8L135.5,6.5z"/>
	</g>
</g>
<path class="st3" d="M22.5,44.7h0.8c9.9,0,18-8,18-18V26c0-9.9-8-18-18-18h-0.8c-9.9,0-18,8-18,18v0.8C4.6,36.7,12.6,44.7,22.5,44.7
	z"/>
<path class="st4" d="M22.5,48.3h1c11.7,0,21.2-9.5,21.2-21.2v-1c0-11.7-9.5-21.2-21.2-21.2h-1c-11.7,0-21.2,9.5-21.2,21.2v1
	C1.3,38.8,10.8,48.3,22.5,48.3z"/>
<g>
	<g>
		<g>
			<g>
				<path class="st5" d="M37.2,14.5c-7.8-2.6-11,5.1-15.4,12.6c-3.5-4.3-9.5-1.8-13.1-5.6c2.7,5.2,8.8,2.5,13,5.7
					c-2.8,4.8-6,9.5-11.1,11.6C20,38,26.3,14.6,37.2,14.5z"/>
				<path class="st5" d="M23.2,15.7c0,0-0.8-0.5-1.7,0l-2.3,4h2.6L23.2,15.7z"/>
			</g>
		</g>
	</g>
</g>
</svg>
